<?xml version="1.0" encoding="utf-8"?>
<!-- Generator: Adobe Illustrator 23.0.1, SVG Export Plug-In . SVG Version: 6.00 Build 0)  -->
<svg version="1.1" id="Layer_1" xmlns="http://www.w3.org/2000/svg" xmlns:xlink="http://www.w3.org/1999/xlink" x="0px" y="0px"
	 viewBox="0 0 512 512" style="enable-background:new 0 0 512 512;" xml:space="preserve">
<style type="text/css">
	.st0{fill:#007BFF;}
	.st1{fill:#FCAA70;}
	.st2{fill:#FA9A5E;}
	.st3{fill:#24447F;}
	.st4{fill:#1A396B;}
	.st5{fill:#3567C3;}
	.st6{fill:#2D56A1;}
	.st7{fill:#E0E7FC;}
	.st8{fill:#FCD7C3;}
</style>
<path class="st0" d="M297.4,508.5L435,434.2c40.9-43.8,66-102.6,66-167.2c0-135.3-109.7-245-245-245S11,131.7,11,267
	c0,135.3,109.7,245,245,245C270.1,512,283.9,510.8,297.4,508.5z"/>
<path class="st1" d="M343.2,273.2c-5.3-9.2-7.7-19.9-6.9-30.5c2.4-30.7-3.6-49.1-11.2-64.1c-5.9-11.4-7.4-24.6-4.4-37.1
	c1.7-6.8,3.3-14.1,4.9-22.1l-8.6-0.9c-5.1-0.6-8.8-5.3-8.1-10.5c2.4-16.3,9.6-22.8,14.6-25.5c-3.3-2.7-7.7-4.2-12.4-3.7
	c-11.5,1.2-21.4,8.6-25.8,19.4c-6.6,16.3-10.3,32.8-11.7,45.3c-0.3,2.9-4.2,3.7-5.7,1.2C235.1,88,192.6,14.2,191,11.5
	c-6.7-11.6-22.2-15.2-33.3-7.2c-9.7,6.9-12.2,20.3-6.2,30.7l52,90c-6.6-10.1-20.2-13.4-30.7-7.3c-11,6.3-14.7,20.5-8.4,31.4
	c-6.3-11-20.5-14.7-31.4-8.4c-10.6,6.1-14.5,19.5-9,30.3L87.4,108c-6-10.5-19.1-14.9-30-9.7c-12.2,5.8-16.7,20.8-10.1,32.3
	c14,24.3,70.3,121.7,92.5,160.2c9.9,17.1,25.3,29.5,43,35.8c7.6,2.7,14.1,7.9,18.1,14.9l10.4,18.1l78-45l57.4-33.2l0.8-0.5
	L343.2,273.2z"/>
<path class="st2" d="M346.8,281.3l0.8-0.5l-4.4-7.6c-5.3-9.2-7.7-19.9-6.9-30.5c0.8-10.4,0.6-19.3-0.2-27.2c-0.8,2-1.6,4.2-2.4,6.6
	c-15.3,47.1-49.8,52.9-68.8,52.2c-6.6-0.2-12.6,3.9-14.7,10.2c-2.7,8.1-9.7,19-27,29.1c-25.1,14.7-50.8,6.3-61.2,1.7
	c6.4,4.7,13.4,8.4,20.8,11c7.6,2.7,14.1,7.9,18.1,14.9l10.4,18.1l78-45L346.8,281.3z"/>
<path class="st2" d="M248.3,423.5l49.1,85c54-9.2,101.9-36,137.7-74.3l-51.3-88.9L248.3,423.5z"/>
<path class="st1" d="M171.6,115.9c-11,6.3-14.7,20.5-8.4,31.4l23.9,41.4c6.3,11,20.5,14.7,31.4,8.4c11-6.3,14.7-20.5,8.4-31.4
	L203,124.3C196.7,113.4,182.6,109.6,171.6,115.9z"/>
<path class="st2" d="M226.9,165.7l-14.5-25.2c1.6,9.8-2.9,20.1-12,25.3c-9.1,5.2-20.2,4-27.9-2.3l14.5,25.2
	c6.3,11,20.5,14.7,31.4,8.4C229.4,190.8,233.2,176.6,226.9,165.7z"/>
<path class="st1" d="M131.8,138.9c-11,6.3-14.7,20.5-8.4,31.4l23.9,41.4c6.3,11,20.5,14.7,31.4,8.4c11-6.3,14.7-20.5,8.4-31.4
	l-23.9-41.4C156.9,136.4,142.7,132.6,131.8,138.9z"/>
<path class="st3" d="M348.6,277.5l-140.1,80.9c-4.8,2.8-6.5,9-3.7,13.8l30.1,52.1c2.8,4.8,9,6.5,13.8,3.7l140.1-80.9
	c4.8-2.8,6.5-9,3.7-13.8l-30.1-52.1C359.7,276.4,353.5,274.8,348.6,277.5z"/>
<path class="st4" d="M284.8,389.3l-24.7-42.8c-3.5-6.1-2.8-13.4,1.3-18.6l-52.9,30.5c-4.8,2.8-6.5,9-3.7,13.8l30.1,52.1
	c2.8,4.8,9,6.5,13.8,3.7l52.9-30.5C295,398.4,288.3,395.4,284.8,389.3z"/>
<path class="st5" d="M400.8,367.9l-140.1,80.9c-4.8,2.8-6.5,9-3.7,13.8l1.9,3.2c2.8,4.8,9,6.5,13.8,3.7l140.1-80.9
	c4.8-2.8,6.5-9,3.7-13.8l-1.9-3.2C411.8,366.8,405.6,365.1,400.8,367.9z"/>
<path class="st6" d="M310,436.5l-2-3.5c-2.2-3.8-1.8-8.5,0.6-11.9l-47.9,27.7c-4.8,2.8-6.5,9-3.7,13.8l1.9,3.2
	c2.8,4.8,9,6.5,13.8,3.7l47.9-27.7C316.4,442.3,312.2,440.3,310,436.5z"/>
<g>
	<path class="st7" d="M335.1,331.7c-3.2-5.6-10.4-7.5-16.1-4.3c-5.6,3.2-7.5,10.4-4.3,16.1c3.2,5.6,10.4,7.5,16.1,4.3
		C336.4,344.5,338.4,337.4,335.1,331.7z"/>
	<path class="st7" d="M282.6,362.1c-3.2-5.6-10.4-7.5-16.1-4.3c-5.6,3.2-7.5,10.4-4.3,16.1c3.2,5.6,10.4,7.5,16.1,4.3
		C283.9,374.9,285.8,367.7,282.6,362.1z"/>
	<path class="st7" d="M224.1,408.8c1.3-0.3,2.5-0.8,3.5-1.7c4.1-3.6,5.2-9.8,2.4-14.7c-2.8-4.9-8.7-7-13.9-5.3
		c-1.3,0.4-2.4,1.2-3.2,2.2l-14.5,14.6c-4.4,4.4-0.1,11.8,5.9,10.2L224.1,408.8z"/>
	<path class="st7" d="M384.5,316.2c-0.9,1-2,1.8-3.3,2.2c-5.2,1.8-11.1-0.3-13.9-5.3c-2.8-4.9-1.7-11.1,2.4-14.7
		c1-0.9,2.2-1.4,3.5-1.7l19.9-5.3c6-1.6,10.3,5.8,5.9,10.2L384.5,316.2z"/>
</g>
<path class="st8" d="M323.4,82.5c-5,2.4-12.8,8.8-15.4,25.7c-0.8,5.1,2.9,9.8,8,10.4l9.6,1c1.3-6.5,2.6-13.5,3.9-21
	C330.7,92.2,328,86.2,323.4,82.5z"/>
<path class="st2" d="M187.1,188.7l-14.5-25.2c1.6,9.8-2.9,20.1-12,25.3c-9.1,5.2-20.2,4-27.9-2.3l14.5,25.2
	c6.3,11,20.5,14.7,31.4,8.4C189.6,213.8,193.4,199.6,187.1,188.7z"/>
<path class="st2" d="M256.3,260.1c3.5-1.7,5.1-5.8,3.7-9.4c-8.9-23-10.1-46.4-3.7-70c4.7-17.3,12.4-29.8,15.9-34.8
	c-1.4,0.8-3.2,0.5-4.2-1.1c-2-3.4-4-6.9-6-10.4c-2.1,2.7-13.4,18-20,41.7c-5.4,19.4-8.2,47.7,4.1,80
	C247.6,260.2,252.4,262,256.3,260.1z"/>
</svg>
